<svg width="102" height="33" viewBox="0 0 102 33" fill="none" xmlns="http://www.w3.org/2000/svg">
<g clip-path="url(#clip0_32_2)">
<path d="M16.4776 24.0744C14.8456 22.0264 13.8856 20.2312 13.5656 18.6952C13.2456 17.4472 13.3736 16.4552 13.9176 15.7192C14.4936 14.8552 15.3576 14.4392 16.4776 14.4392C17.5976 14.4392 18.4616 14.8552 19.0376 15.7192C19.5816 16.4552 19.7096 17.4472 19.3896 18.6952C19.0376 20.2632 18.0776 22.0552 16.4776 24.0744ZM28.068 25.4504C27.844 26.9544 26.82 28.2024 25.412 28.8104C22.692 29.9944 20.0008 28.1064 17.6968 25.5464C21.508 20.7752 22.212 17.0632 20.5768 14.66C19.6168 13.284 18.2408 12.612 16.4776 12.612C12.9256 12.612 10.9704 15.62 11.7384 19.1112C12.1864 20.9992 13.3704 23.1464 15.2584 25.5464C14.0744 26.8584 12.9544 27.7864 11.9624 28.3624C11.1944 28.7784 10.4584 29.0344 9.75439 29.0984C6.52239 29.5784 3.99119 26.4424 5.14319 23.2072C5.30319 22.7912 5.62319 22.0232 6.16719 20.8392L6.19919 20.7752C7.95919 16.932 10.1064 12.58 12.5704 7.7448L12.6344 7.5848L13.3384 6.2408C13.8824 5.2488 14.1064 4.8008 14.9704 4.2568C15.3864 4.0008 15.8984 3.8728 16.4744 3.8728C17.6264 3.8728 18.5224 4.5448 18.9064 5.0888C19.0984 5.3768 19.3224 5.7608 19.6104 6.2408L20.2824 7.5528L20.3784 7.7448C22.8424 12.58 24.9896 16.932 26.7496 20.7752L26.7816 20.8072L27.4216 22.2792L27.8056 23.2072C28.1 23.9464 28.164 24.6824 28.068 25.4504ZM29.54 22.5672C29.316 21.8632 28.932 21.0312 28.452 20.0392V20.0072C26.18 15.172 24.0648 10.82 22.0488 6.9128L21.9208 6.7208C20.4808 3.7768 19.4568 2.0136 16.4776 2.0136C13.5336 2.0136 12.2824 4.0616 11.0024 6.7208L10.9064 6.9128C8.89039 10.82 6.77519 15.172 4.50319 20.0072V20.0712L3.83119 21.5432C3.57519 22.1512 3.44719 22.4712 3.41519 22.5672C1.78319 27.0504 5.14319 30.9864 9.21039 30.9864C9.24239 30.9864 9.37039 30.9864 9.53039 30.9544H9.97839C12.0904 30.6984 14.2696 29.3544 16.4776 26.9512C18.6856 29.3512 20.8648 30.6984 22.9768 30.9544H23.4248C23.5848 30.9864 23.7128 30.9864 23.7448 30.9864C27.812 30.9896 31.172 27.0504 29.54 22.5672Z" fill="#FF385C"/>
</g>
<g clip-path="url(#clip1_32_2)">
<path d="M44.66 24.61C43.9526 24.6209 43.2516 24.474 42.6081 24.1799C41.9646 23.8858 41.3947 23.452 40.94 22.91C39.9289 21.7449 39.3934 20.2419 39.44 18.7C39.4236 17.1253 39.9778 15.5979 41 14.4C41.4761 13.8494 42.0659 13.4087 42.7289 13.1083C43.3919 12.8079 44.1122 12.6549 44.84 12.66C45.5263 12.6413 46.2062 12.7965 46.8164 13.1113C47.4266 13.426 47.9473 13.89 48.33 14.46L48.42 13H51.18V24.32H48.42L48.32 22.67C47.9273 23.2806 47.3847 23.7804 46.744 24.1217C46.1033 24.4631 45.3858 24.6346 44.66 24.62V24.61ZM45.38 21.91C45.8995 21.9091 46.4085 21.7637 46.85 21.49C47.27 21.19 47.6 20.79 47.87 20.32C48.12 19.84 48.24 19.27 48.24 18.64C48.24 18.01 48.12 17.44 47.87 16.95C47.63 16.47 47.27 16.08 46.85 15.78C46.4081 15.5074 45.8992 15.3631 45.38 15.3631C44.8608 15.3631 44.3519 15.5074 43.91 15.78C43.49 16.08 43.16 16.48 42.89 16.95C42.6401 17.4776 42.5168 18.0563 42.53 18.64C42.494 19.1938 42.6023 19.7475 42.8441 20.247C43.086 20.7465 43.4532 21.1748 43.91 21.49C44.36 21.76 44.84 21.91 45.38 21.91ZM55.9 9.93C55.9 10.26 55.84 10.56 55.7 10.8C55.54 11.0512 55.3178 11.2568 55.055 11.397C54.7923 11.5371 54.4977 11.607 54.2 11.6C53.9 11.6 53.6 11.55 53.32 11.4C53.0623 11.2569 52.8455 11.0504 52.69 10.8C52.5436 10.534 52.471 10.2336 52.48 9.93C52.48 9.6 52.54 9.3 52.69 9.06C52.84 8.79 53.05 8.61 53.32 8.46C53.59 8.31 53.89 8.25 54.19 8.25C54.49 8.25 54.79 8.31 55.06 8.45C55.33 8.61 55.54 8.82 55.69 9.05C55.81 9.3 55.9 9.57 55.9 9.93ZM52.69 24.28V12.96H55.69V24.28H52.69ZM63.7 15.93V15.96C63.55 15.9 63.37 15.87 63.22 15.84C63.04 15.81 62.89 15.81 62.71 15.81C61.87 15.81 61.24 16.05 60.81 16.56C60.37 17.07 60.16 17.8 60.16 18.73V24.28H57.16V12.96H59.92L60.01 14.67C60.31 14.07 60.67 13.62 61.18 13.29C61.6869 12.9575 62.2841 12.7899 62.89 12.81C63.1 12.81 63.31 12.84 63.49 12.87C63.59 12.9 63.64 12.9 63.7 12.93V15.93ZM64.9 24.28V8.31H67.9V14.41C68.33 13.86 68.8 13.44 69.4 13.11C70.3566 12.6439 71.4417 12.5119 72.4822 12.7348C73.5226 12.9578 74.4584 13.5229 75.14 14.34C76.1496 15.502 76.6851 17.0013 76.64 18.54C76.6564 20.1147 76.1022 21.6421 75.08 22.84C74.6 23.38 74.03 23.84 73.38 24.14C72.71 24.44 72.02 24.58 71.24 24.58C70.5537 24.5987 69.8738 24.4435 69.2636 24.1287C68.6534 23.814 68.1327 23.35 67.75 22.78L67.66 24.25L64.9 24.28ZM70.7 21.91C71.2195 21.9091 71.7284 21.7637 72.17 21.49C72.59 21.19 72.92 20.79 73.19 20.32C73.43 19.84 73.55 19.27 73.55 18.64C73.55 18.01 73.43 17.44 73.19 16.95C72.92 16.47 72.59 16.08 72.17 15.78C71.7281 15.5074 71.2192 15.3631 70.7 15.3631C70.1808 15.3631 69.6719 15.5074 69.23 15.78C68.81 16.08 68.48 16.48 68.21 16.95C67.9566 17.4768 67.8299 18.0555 67.84 18.64C67.84 19.27 67.97 19.84 68.21 20.32C68.45 20.8 68.81 21.19 69.23 21.49C69.68 21.76 70.16 21.91 70.7 21.91ZM77.78 24.28V12.96H80.55L80.64 14.43C80.987 13.865 81.4786 13.403 82.0641 13.0918C82.6496 12.7806 83.3076 12.6315 83.97 12.66C84.73 12.6326 85.4805 12.8357 86.123 13.2426C86.7655 13.6495 87.2699 14.2412 87.57 14.94C87.91 15.66 88.09 16.54 88.09 17.53V24.31H85.09V17.91C85.09 17.13 84.9 16.51 84.54 16.05C84.18 15.6 83.7 15.36 83.07 15.36C82.62 15.36 82.23 15.46 81.87 15.66C81.54 15.87 81.27 16.14 81.06 16.53C80.85 16.89 80.76 17.35 80.76 17.8V24.28H77.78ZM89.58 24.28V8.31H92.59V14.41C93.01 13.86 93.49 13.44 94.09 13.11C95.0466 12.6439 96.1317 12.5119 97.1722 12.7348C98.2126 12.9578 99.1484 13.5229 99.83 14.34C100.84 15.502 101.375 17.0013 101.33 18.54C101.346 20.1147 100.792 21.6421 99.77 22.84C99.2939 23.3906 98.7041 23.8313 98.0411 24.1317C97.3781 24.4321 96.6578 24.5851 95.93 24.58C95.2437 24.5987 94.5638 24.4435 93.9536 24.1287C93.3434 23.814 92.8227 23.35 92.44 22.78L92.34 24.25L89.59 24.28H89.58ZM95.41 21.91C95.9295 21.9091 96.4385 21.7637 96.88 21.49C97.3 21.19 97.63 20.79 97.9 20.32C98.15 19.84 98.27 19.27 98.27 18.64C98.27 18.01 98.15 17.44 97.9 16.95C97.66 16.47 97.3 16.08 96.88 15.78C96.4381 15.5074 95.9292 15.3631 95.41 15.3631C94.8908 15.3631 94.3819 15.5074 93.94 15.78C93.52 16.08 93.19 16.48 92.92 16.95C92.6556 17.4726 92.5316 18.055 92.56 18.64C92.524 19.1938 92.6323 19.7475 92.8741 20.247C93.116 20.7465 93.4832 21.1748 93.94 21.49C94.39 21.76 94.84 21.91 95.41 21.91Z" fill="#FF385C"/>
</g>
<defs>
<clipPath id="clip0_32_2">
<rect width="32" height="32" fill="white" transform="translate(0.5 0.5)"/>
</clipPath>
<clipPath id="clip1_32_2">
<rect width="63" height="17" fill="white" transform="translate(38.5 8)"/>
</clipPath>
</defs>
</svg>
