<svg width="31" height="31" viewBox="0 0 31 31" fill="none" xmlns="http://www.w3.org/2000/svg">
<g clip-path="url(#clip0_4_195)">
<path d="M16.4374 1.4375V5.21563L20.2117 3.03688L21.1492 4.66063L16.4374 7.38031V13.8753L22.0624 10.6278V5.1875H23.9374V9.545L27.2092 7.65687L28.1467 9.28063L24.8749 11.1697L28.6492 13.3494L27.7117 14.9731L22.9999 12.2516L17.3749 15.4991L22.9999 18.7475L27.7117 16.0269L28.6492 17.6506L24.8749 19.8294L28.1467 21.7194L27.2092 23.3431L23.9374 21.4541V25.8125H22.0624V20.3713L16.4374 17.1228V23.6187L21.1492 26.3394L20.2117 27.9631L16.4374 25.7844V29.5625H14.5624V25.7834L10.788 27.9631L9.85049 26.3394L14.5624 23.6187V17.1228L8.93737 20.3703V25.8125H7.06237V21.4531L3.79049 23.3431L2.85299 21.7194L6.12393 19.8294L2.35049 17.6506L3.28799 16.0269L7.99893 18.7466L13.6239 15.4991L7.99893 12.2516L3.28799 14.9731L2.35049 13.3494L6.12487 11.1687L2.85299 9.28063L3.79049 7.65687L7.06237 9.545V5.1875H8.93737V10.6278L14.5624 13.8753V7.38031L9.85049 4.66063L10.788 3.03688L14.5624 5.21563V1.4375H16.4374Z" fill="#222222"/>
</g>
<defs>
<clipPath id="clip0_4_195">
<rect width="30" height="30" fill="white" transform="translate(0.499878 0.5)"/>
</clipPath>
</defs>
</svg>
