<svg width="19" height="19" viewBox="0 0 19 19" fill="none" xmlns="http://www.w3.org/2000/svg">
<g clip-path="url(#clip0_4_803)">
<path fill-rule="evenodd" clip-rule="evenodd" d="M5 8.27555V5.92992C5 5.69367 5.19688 5.4743 5.43313 5.4743H6.85063V4.3043C6.85063 1.5818 8.24562 0.192422 11.0244 0.169922C11.9525 0.169922 12.8356 0.288047 13.6625 0.529922C13.9212 0.608672 14.0169 0.766172 14 1.02492L13.685 3.30867C13.6625 3.40992 13.6063 3.50555 13.505 3.6068C13.3869 3.66867 13.2688 3.70805 13.1506 3.68555C12.6556 3.54492 12.1494 3.48867 11.5756 3.48867C10.7881 3.48867 10.67 3.64617 10.67 4.4618V5.4743H13.2125C13.4488 5.4743 13.6681 5.71055 13.6681 5.9693L13.4712 8.31492C13.4712 8.55117 13.2744 8.7143 13.0381 8.7143H10.67V17.7143C10.67 17.9505 10.4731 18.1699 10.2369 18.1699H7.30625C7.07 18.1699 6.85625 17.9505 6.85625 17.7143V8.7143H5.43875C5.32239 8.7143 5.21079 8.66807 5.12851 8.58579C5.04623 8.50351 5 8.39191 5 8.27555Z" fill="#222222"/>
</g>
<defs>
<clipPath id="clip0_4_803">
<rect width="18" height="18" fill="white" transform="translate(0.5 0.169922)"/>
</clipPath>
</defs>
</svg>
