<svg width="19" height="19" viewBox="0 0 19 19" fill="none" xmlns="http://www.w3.org/2000/svg">
<g clip-path="url(#clip0_4_809)">
<path fill-rule="evenodd" clip-rule="evenodd" d="M17.8175 0.852422C17.36 0.394922 16.82 0.169922 16.19 0.169922H2.81C2.1725 0.169922 1.6325 0.394922 1.1825 0.852422C0.7325 1.30992 0.5 1.84992 0.5 2.47992V15.8599C0.5 16.4974 0.725 17.0374 1.1825 17.4874C1.64 17.9374 2.18 18.1699 2.81 18.1699H16.19C16.8275 18.1699 17.3675 17.9449 17.8175 17.4874C18.2675 17.0299 18.5 16.4899 18.5 15.8599V2.47992C18.5 1.84242 18.275 1.30242 17.8175 0.852422ZM6.9575 6.65742C7.6625 5.97492 8.5175 5.62992 9.5075 5.62992C10.505 5.62992 11.36 5.97492 12.065 6.65742C12.77 7.33992 13.1225 8.16492 13.1225 9.13242C13.1225 10.0999 12.77 10.9249 12.065 11.6074C11.36 12.2899 10.505 12.6349 9.5075 12.6349C8.5175 12.6349 7.6625 12.2899 6.9575 11.6074C6.2525 10.9249 5.9 10.0999 5.9 9.13242C5.9 8.16492 6.2525 7.33992 6.9575 6.65742ZM16.4525 15.3799C16.4525 15.5824 16.385 15.7549 16.2425 15.8899C16.1774 15.9572 16.0992 16.0105 16.0128 16.0466C15.9265 16.0827 15.8336 16.1008 15.74 16.0999H3.215C3.12018 16.1014 3.02605 16.0836 2.93836 16.0475C2.85067 16.0114 2.77127 15.9578 2.705 15.8899C2.63816 15.8233 2.5857 15.7436 2.55087 15.6559C2.51604 15.5682 2.49958 15.4743 2.5025 15.3799V7.78242H4.1525C3.99617 8.27986 3.91774 8.7985 3.92 9.31992C3.92 10.8199 4.4675 12.1024 5.5625 13.1599C6.6575 14.2174 7.97 14.7499 9.515 14.7499C10.5 14.7579 11.4699 14.507 12.3275 14.0224C13.1692 13.5559 13.8729 12.8755 14.3675 12.0499C14.864 11.229 15.1235 10.2867 15.1175 9.32742C15.1175 8.79492 15.035 8.28492 14.885 7.78992H16.4675V15.3799H16.4525ZM16.4525 4.91742C16.4525 5.14242 16.37 5.33742 16.22 5.49492C16.1446 5.57089 16.0545 5.63069 15.9552 5.67066C15.8559 5.71064 15.7495 5.72995 15.6425 5.72742H13.6025C13.3775 5.72742 13.1825 5.64492 13.025 5.49492C12.949 5.41952 12.8892 5.32941 12.8493 5.23012C12.8093 5.13083 12.79 5.02443 12.7925 4.91742V2.98242C12.7925 2.76492 12.875 2.57742 13.025 2.41242C13.175 2.24742 13.3775 2.17242 13.6025 2.17242H15.6425C15.8675 2.17242 16.0625 2.25492 16.22 2.41242C16.3775 2.56992 16.4525 2.76492 16.4525 2.98242V4.91742Z" fill="#222222"/>
</g>
<defs>
<clipPath id="clip0_4_809">
<rect width="18" height="18" fill="white" transform="translate(0.5 0.169922)"/>
</clipPath>
</defs>
</svg>
