<svg width="31" height="31" viewBox="0 0 31 31" fill="none" xmlns="http://www.w3.org/2000/svg">
<g clip-path="url(#clip0_4_171)">
<path d="M24.875 1.4375C25.4906 1.4375 26.1001 1.55875 26.6688 1.79431C27.2375 2.02988 27.7543 2.37516 28.1896 2.81044C28.6248 3.24571 28.9701 3.76246 29.2057 4.33117C29.4413 4.89988 29.5625 5.50943 29.5625 6.125C29.5625 12.1147 28.07 18.4878 25.8125 19.8997V29.5625H23.9375V19.9006C21.7213 18.515 20.2419 12.3425 20.1894 6.44844L20.1875 6.125L20.1922 5.92156C20.2446 4.71477 20.7609 3.57479 21.6333 2.73937C22.5058 1.90395 23.6671 1.43757 24.875 1.4375ZM16.4375 1.4375V18.4231C18.6097 18.9453 20.1875 21.245 20.1875 23.9375C20.1875 27.0031 18.1409 29.5625 15.5 29.5625C12.8591 29.5625 10.8125 27.0031 10.8125 23.9375C10.8125 21.245 12.3903 18.9444 14.5625 18.4231V1.4375H16.4375ZM2.375 1.4375H3.3125C7.50312 1.4375 9.81312 7.40469 9.87406 18.7859L9.875 20.1875H4.24906L4.25 29.5625H2.375V1.4375ZM15.5 20.1875C13.9981 20.1875 12.6875 21.8263 12.6875 23.9375C12.6875 26.0487 13.9981 27.6875 15.5 27.6875C17.0019 27.6875 18.3125 26.0487 18.3125 23.9375C18.3125 21.8263 17.0019 20.1875 15.5 20.1875ZM4.25 3.53656V18.3125H7.99531L7.97938 17.4087L7.95406 16.5191C7.69344 9.08469 6.34531 4.83406 4.46 3.65375L4.3475 3.58812L4.25 3.53656ZM22.0672 5.96L22.0625 6.125L22.0644 6.41563C22.1066 10.4666 23.0309 14.9778 23.9384 17.0938V3.47188C23.4163 3.6565 22.9603 3.99105 22.6274 4.43364C22.2946 4.87622 22.0997 5.40717 22.0672 5.96ZM25.8134 3.47281V17.0909C26.7406 14.9253 27.6875 10.25 27.6875 6.125C27.6875 5.54333 27.5072 4.97597 27.1714 4.50101C26.8356 4.02604 26.3618 3.66683 25.8134 3.47281Z" fill="#222222"/>
</g>
<defs>
<clipPath id="clip0_4_171">
<rect width="30" height="30" fill="white" transform="translate(0.5 0.5)"/>
</clipPath>
</defs>
</svg>
