<svg width="31" height="31" viewBox="0 0 31 31" fill="none" xmlns="http://www.w3.org/2000/svg">
<g clip-path="url(#clip0_4_189)">
<path d="M15.5599 1.4375C23.3262 1.4375 29.6224 7.73375 29.6224 15.5C29.6224 23.2663 23.3262 29.5625 15.5599 29.5625C7.79369 29.5625 1.49744 23.2663 1.49744 15.5C1.49744 7.73375 7.79369 1.4375 15.5599 1.4375ZM15.5599 3.3125C8.82869 3.3125 3.37244 8.76875 3.37244 15.5C3.37244 22.2313 8.82869 27.6875 15.5599 27.6875C22.2912 27.6875 27.7474 22.2313 27.7474 15.5C27.7474 8.76875 22.2912 3.3125 15.5599 3.3125ZM17.4349 8C18.6595 8.00158 19.8348 8.48228 20.7094 9.33927C21.5841 10.1963 22.0887 11.3615 22.1153 12.5858C22.1419 13.81 21.6883 14.996 20.8517 15.8902C20.015 16.7843 18.8617 17.3156 17.6384 17.3703L17.4349 17.375H12.7474V23H10.8724V8H17.4349ZM17.4349 9.875H12.7474V15.5H17.4349C18.167 15.5007 18.8706 15.2159 19.396 14.7062C19.9215 14.1964 20.2275 13.5018 20.2489 12.77C20.2704 12.0383 20.0057 11.3269 19.5111 10.7872C19.0164 10.2475 18.3308 9.92193 17.5999 9.87969L17.4349 9.875Z" fill="#222222"/>
</g>
<defs>
<clipPath id="clip0_4_189">
<rect width="30" height="30" fill="white" transform="translate(0.559937 0.5)"/>
</clipPath>
</defs>
</svg>
