<svg width="31" height="31" viewBox="0 0 31 31" fill="none" xmlns="http://www.w3.org/2000/svg">
<g clip-path="url(#clip0_4_183)">
<path d="M23.04 24.875C23.9662 24.875 24.8634 25.2041 25.544 25.8209C25.8309 26.0797 26.2097 26.2381 26.6147 26.2738L26.79 26.2813V28.1563L26.5762 28.1506C25.7277 28.1085 24.9193 27.7766 24.2859 27.2103C23.9417 26.9083 23.4979 26.7443 23.04 26.75C22.5694 26.75 22.1231 26.9141 21.795 27.2103C21.1064 27.8245 20.2145 28.1615 19.2919 28.1563C18.3685 28.162 17.4759 27.8249 16.7869 27.2103C16.4424 26.9081 15.9982 26.7441 15.54 26.75C15.0684 26.75 14.6212 26.9141 14.294 27.2103C13.6054 27.8244 12.7136 28.1614 11.7909 28.1563C10.8677 28.1622 9.97517 27.8255 9.28592 27.2113C8.94183 26.9089 8.498 26.7446 8.03998 26.75C7.56842 26.75 7.12123 26.9141 6.7931 27.2103C6.15999 27.7764 5.35194 28.1083 4.50373 28.1506L4.28998 28.1563V26.2813L4.46529 26.2738C4.86188 26.2431 5.2377 26.0842 5.53592 25.8209C6.22465 25.2064 7.11694 24.8693 8.03998 24.875C8.96623 24.875 9.86342 25.205 10.544 25.8209C10.8722 26.1172 11.3184 26.2803 11.7909 26.2813C12.2615 26.2813 12.7087 26.1172 13.0359 25.82C13.7247 25.2057 14.6171 24.869 15.54 24.875C16.4662 24.875 17.3634 25.2041 18.044 25.8209C18.3722 26.1172 18.8184 26.2803 19.2909 26.2813C19.7615 26.2813 20.2087 26.1172 20.5359 25.8209C21.2244 25.2066 22.1173 24.8695 23.04 24.875ZM23.04 20.1875C23.9662 20.1875 24.8634 20.5166 25.544 21.1334C25.8309 21.3922 26.2097 21.5506 26.6147 21.5863L26.79 21.5938V23.4688L26.5762 23.4631C25.7277 23.421 24.9193 23.0891 24.2859 22.5228C23.9417 22.2208 23.4979 22.0568 23.04 22.0625C22.5694 22.0625 22.1231 22.2266 21.795 22.5228C21.1064 23.137 20.2145 23.474 19.2919 23.4688C18.3685 23.4745 17.4759 23.1374 16.7869 22.5228C16.4424 22.2206 15.9982 22.0566 15.54 22.0625C15.0684 22.0625 14.6212 22.2266 14.294 22.5228C13.6054 23.1369 12.7136 23.4739 11.7909 23.4688C10.8677 23.4747 9.97517 23.138 9.28592 22.5238C8.94183 22.2214 8.498 22.0571 8.03998 22.0625C7.56842 22.0625 7.12123 22.2266 6.7931 22.5228C6.15999 23.0889 5.35194 23.4208 4.50373 23.4631L4.28998 23.4688V21.5938L4.46529 21.5863C4.86188 21.5556 5.2377 21.3967 5.53592 21.1334C6.22465 20.5189 7.11694 20.1818 8.03998 20.1875C8.96623 20.1875 9.86342 20.5175 10.544 21.1334C10.8722 21.4297 11.3184 21.5928 11.7909 21.5938C12.2615 21.5938 12.7087 21.4297 13.0359 21.1325C13.7247 20.5182 14.6171 20.1815 15.54 20.1875C16.4662 20.1875 17.3634 20.5166 18.044 21.1334C18.3722 21.4297 18.8184 21.5928 19.2909 21.5938C19.7615 21.5938 20.2087 21.4297 20.5359 21.1334C21.2244 20.5191 22.1173 20.182 23.04 20.1875ZM19.29 3.3125C20.2521 3.3125 21.1774 3.68229 21.8745 4.34537C22.5716 5.00845 22.9872 5.91411 23.0353 6.875L23.04 7.0625V8.9375H26.79V10.8125H23.04V15.5C23.895 15.5 24.7256 15.7813 25.3837 16.3081L25.544 16.4459C25.8309 16.7047 26.2097 16.8631 26.6147 16.8988L26.79 16.9063V18.7813L26.5762 18.7756C25.7277 18.7335 24.9193 18.4016 24.2859 17.8353C23.9417 17.5333 23.4979 17.3693 23.04 17.375C22.5694 17.375 22.1231 17.5391 21.795 17.8353C21.1064 18.4495 20.2145 18.7865 19.2919 18.7813C18.3685 18.787 17.4759 18.4499 16.7869 17.8353C16.4424 17.5331 15.9982 17.3691 15.54 17.375C15.0684 17.375 14.6212 17.5391 14.294 17.8353C13.6054 18.4494 12.7136 18.7864 11.7909 18.7813C10.8677 18.7872 9.97517 18.4505 9.28592 17.8363C8.94183 17.5339 8.498 17.3696 8.03998 17.375C7.56842 17.375 7.12123 17.5391 6.7931 17.8353C6.15999 18.4014 5.35194 18.7333 4.50373 18.7756L4.28998 18.7813V16.9063L4.46529 16.8988C4.86188 16.8681 5.2377 16.7092 5.53592 16.4459C6.22465 15.8314 7.11694 15.4943 8.03998 15.5C8.96623 15.5 9.86342 15.83 10.544 16.4459C10.8722 16.7422 11.3184 16.9053 11.7909 16.9063C12.2615 16.9063 12.7087 16.7422 13.0359 16.445C13.6695 15.8786 14.4783 15.547 15.3272 15.5056L15.54 15.5V10.8125H4.28998V8.9375H15.54V7.0625C15.5422 6.57596 15.3551 6.10762 15.0184 5.75642C14.6816 5.40523 14.2216 5.19869 13.7353 5.18043C13.2491 5.16218 12.7749 5.33364 12.4127 5.65859C12.0506 5.98354 11.829 6.43654 11.7947 6.92188L11.79 7.0625H9.91498C9.91512 6.30086 10.1472 5.55731 10.5803 4.9308C11.0134 4.30428 11.627 3.8245 12.3395 3.55528C13.052 3.28607 13.8295 3.24018 14.5687 3.42374C15.3079 3.60729 15.9737 4.01158 16.4775 4.58282C16.8287 4.18296 17.2614 3.86276 17.7464 3.64368C18.2315 3.4246 18.7577 3.31169 19.29 3.3125ZM17.415 15.9903C17.565 16.0756 17.7084 16.1722 17.8453 16.2781L18.044 16.4459C18.3722 16.7422 18.8184 16.9053 19.2909 16.9063C19.7025 16.9063 20.0972 16.7806 20.4075 16.55L20.5359 16.4459C20.729 16.2706 20.94 16.1178 21.164 15.9903V10.8125H17.414L17.415 15.9903ZM19.29 5.1875C18.8169 5.18735 18.3613 5.36601 18.0145 5.68766C17.6676 6.00931 17.4551 6.45017 17.4197 6.92188L17.415 7.0625V8.9375H21.165V7.0625C21.165 6.56522 20.9674 6.08831 20.6158 5.73668C20.2642 5.38505 19.7873 5.1875 19.29 5.1875Z" fill="#222222"/>
</g>
<defs>
<clipPath id="clip0_4_183">
<rect width="30" height="30" fill="white" transform="translate(0.539978 0.5)"/>
</clipPath>
</defs>
</svg>
