<svg width="13" height="13" viewBox="0 0 13 13" fill="none" xmlns="http://www.w3.org/2000/svg">
<g clip-path="url(#clip0_4_74)">
<path d="M2.00501 5.77002C2.00501 3.89502 3.50501 2.39502 5.38001 2.39502C7.25501 2.39502 8.75501 3.89502 8.75501 5.77002C8.75501 7.64502 7.25501 9.14502 5.38001 9.14502C3.50501 9.14502 2.00501 7.64502 2.00501 5.77002ZM11.83 10.945L9.73001 8.77002C10.255 7.94502 10.63 6.89502 10.63 5.77002C10.63 2.84502 8.30501 0.52002 5.38001 0.52002C2.455 0.52002 0.130005 2.84502 0.130005 5.77002C0.130005 8.69502 2.455 11.02 5.38001 11.02C6.50501 11.02 7.55501 10.645 8.38001 10.12L10.555 12.22C10.705 12.445 10.93 12.52 11.23 12.52C11.455 12.52 11.68 12.445 11.83 12.22C12.205 11.845 12.205 11.32 11.83 10.945Z" fill="white"/>
</g>
<defs>
<clipPath id="clip0_4_74">
<rect width="12" height="12" fill="white" transform="translate(0.130005 0.52002)"/>
</clipPath>
</defs>
</svg>
