<svg width="13" height="12" viewBox="0 0 13 12" fill="none" xmlns="http://www.w3.org/2000/svg">
<path fill-rule="evenodd" clip-rule="evenodd" d="M6.13024 0.792027L4.58374 4.1239L0.886243 4.60015C0.814976 4.60922 0.747813 4.63856 0.692743 4.6847C0.637673 4.73083 0.597014 4.79182 0.575604 4.8604C0.554193 4.92897 0.552932 5.00226 0.57197 5.07153C0.591008 5.1408 0.629544 5.20315 0.682993 5.25115L3.41787 7.71303L2.68099 11.4075C2.66681 11.4783 2.67337 11.5517 2.69989 11.6189C2.72641 11.6861 2.77176 11.7441 2.83049 11.7862C2.88922 11.8282 2.95883 11.8523 3.03097 11.8558C3.1031 11.8592 3.17468 11.8417 3.23712 11.8054L6.46999 9.93153L9.70437 11.8054C9.76677 11.8415 9.83826 11.8589 9.91028 11.8555C9.9823 11.852 10.0518 11.8278 10.1104 11.7859C10.1691 11.7439 10.2144 11.686 10.241 11.6189C10.2675 11.5519 10.2742 11.4786 10.2601 11.4079L9.52324 7.71303L12.2581 5.25115C12.3114 5.20315 12.3499 5.14086 12.3689 5.07167C12.3878 5.00249 12.3866 4.9293 12.3652 4.86081C12.3439 4.79232 12.3033 4.73139 12.2484 4.68525C12.1934 4.63912 12.1264 4.60971 12.0552 4.60053L8.35774 4.1239L6.81012 0.792027C6.78001 0.727188 6.732 0.672305 6.67174 0.633845C6.61148 0.595385 6.54148 0.574951 6.46999 0.574951C6.39851 0.574951 6.32851 0.595385 6.26825 0.633845C6.20799 0.672305 6.16035 0.727188 6.13024 0.792027Z" fill="#222222"/>
</svg>
