<svg width="19" height="19" viewBox="0 0 19 19" fill="none" xmlns="http://www.w3.org/2000/svg">
<g clip-path="url(#clip0_4_806)">
<path fill-rule="evenodd" clip-rule="evenodd" d="M17.9375 3.74742C17.285 4.02305 16.6325 4.20867 15.9406 4.2818C16.6663 3.8543 17.1894 3.22992 17.4706 2.38055C16.7881 2.78033 16.0454 3.06715 15.2712 3.22992C14.5794 2.50992 13.7244 2.13867 12.7344 2.13867C10.8162 2.13867 9.26375 3.6743 9.26375 5.58117C9.26375 5.8568 9.30313 6.11555 9.35938 6.35742C6.58063 6.22805 4.01 4.89492 2.23812 2.76867C1.92312 3.30305 1.75437 3.8768 1.75437 4.5068C1.75437 5.67117 2.33375 6.70617 3.30125 7.35305C2.73875 7.33617 2.22125 7.1843 1.715 6.92555V6.96492C1.715 8.59055 2.9075 10.0137 4.49375 10.3287C4.13937 10.4243 3.84125 10.458 3.5825 10.458C3.41375 10.458 3.18875 10.4412 2.94687 10.3849C3.16425 11.0725 3.59373 11.6736 4.17375 12.102C4.75377 12.5305 5.45455 12.7643 6.17562 12.7699C4.92688 13.7487 3.48688 14.2493 1.86688 14.2493C1.55188 14.2493 1.27062 14.2324 1.0625 14.193C2.66562 15.228 4.4375 15.7455 6.35563 15.7455C10.4563 15.7455 13.5725 13.4899 15.08 10.5143C15.845 9.01805 16.2163 7.4993 16.2163 5.96367V5.70492C16.1994 5.6093 16.1994 5.53617 16.1994 5.5193C16.8785 5.03329 17.4668 4.43163 17.9375 3.7418" fill="#222222"/>
</g>
<defs>
<clipPath id="clip0_4_806">
<rect width="18" height="18" fill="white" transform="translate(0.5 0.169922)"/>
</clipPath>
</defs>
</svg>
