<svg width="31" height="31" viewBox="0 0 31 31" fill="none" xmlns="http://www.w3.org/2000/svg">
<g clip-path="url(#clip0_4_177)">
<path d="M15.5199 19.5623C17.4184 19.5623 18.9574 21.1013 18.9574 22.9998C18.9574 24.8983 17.4184 26.4373 15.5199 26.4373C13.6214 26.4373 12.0824 24.8983 12.0824 22.9998C12.0824 21.1013 13.6214 19.5623 15.5199 19.5623ZM15.5199 21.4373C14.6569 21.4373 13.9574 22.1368 13.9574 22.9998C13.9574 23.8627 14.6569 24.5623 15.5199 24.5623C16.3828 24.5623 17.0824 23.8627 17.0824 22.9998C17.0824 22.1368 16.3828 21.4373 15.5199 21.4373ZM15.52 14.5624C18.817 14.5624 21.6723 16.4534 23.0605 19.2101L21.6408 20.6282C20.69 18.176 18.308 16.4374 15.52 16.4374C12.7319 16.4374 10.35 18.176 9.39913 20.6282L7.97993 19.2091C9.36828 16.453 12.2233 14.5624 15.52 14.5624ZM15.5201 9.56251C20.1893 9.56251 24.3022 11.944 26.7106 15.5585L25.354 16.9154C23.3152 13.6273 19.6734 11.4375 15.5201 11.4375C11.3668 11.4375 7.72494 13.6273 5.68618 16.9154L4.32953 15.5585C6.73792 11.944 10.8509 9.56251 15.5201 9.56251ZM15.5199 4.56226C21.5678 4.56226 26.9355 7.47417 30.2976 11.9725L28.9565 13.314C25.9484 9.14829 21.0508 6.43726 15.5199 6.43726C9.98944 6.43726 5.0921 9.14788 2.08393 13.3131L0.742859 11.9715C4.10501 7.47376 9.47244 4.56226 15.5199 4.56226Z" fill="#222222"/>
</g>
<defs>
<clipPath id="clip0_4_177">
<rect width="30" height="30" fill="white" transform="translate(0.519989 0.5)"/>
</clipPath>
</defs>
</svg>
